<mxfile host="65bd71144e">
    <diagram id="gsRGY2olZ3tLVO2xzNXA" name="Page-1">
        <mxGraphModel dx="1648" dy="798" grid="0" gridSize="10" guides="1" tooltips="1" connect="1" arrows="1" fold="1" page="0" pageScale="1" pageWidth="850" pageHeight="1100" background="#FFFFFF" math="0" shadow="0">
            <root>
                <mxCell id="0"/>
                <mxCell id="1" parent="0"/>
                <mxCell id="zOSaQ0mauKIAhTPhQ_Xu-2" value="" style="endArrow=none;dashed=1;html=1;" parent="1" edge="1">
                    <mxGeometry width="50" height="50" relative="1" as="geometry">
                        <mxPoint x="74" y="492" as="sourcePoint"/>
                        <mxPoint x="696" y="492" as="targetPoint"/>
                    </mxGeometry>
                </mxCell>
                <mxCell id="zOSaQ0mauKIAhTPhQ_Xu-3" value="" style="endArrow=none;dashed=1;html=1;" parent="1" edge="1">
                    <mxGeometry width="50" height="50" relative="1" as="geometry">
                        <mxPoint x="74" y="402" as="sourcePoint"/>
                        <mxPoint x="696" y="402" as="targetPoint"/>
                    </mxGeometry>
                </mxCell>
                <mxCell id="zOSaQ0mauKIAhTPhQ_Xu-4" value="" style="endArrow=none;dashed=1;html=1;" parent="1" edge="1">
                    <mxGeometry width="50" height="50" relative="1" as="geometry">
                        <mxPoint x="79" y="226" as="sourcePoint"/>
                        <mxPoint x="696" y="226" as="targetPoint"/>
                    </mxGeometry>
                </mxCell>
                <mxCell id="zOSaQ0mauKIAhTPhQ_Xu-6" value="ROM BLOCK" style="rounded=0;whiteSpace=wrap;html=1;" parent="1" vertex="1">
                    <mxGeometry x="542" y="321" width="120" height="30" as="geometry"/>
                </mxCell>
                <mxCell id="14" style="edgeStyle=orthogonalEdgeStyle;rounded=0;orthogonalLoop=1;jettySize=auto;html=1;exitX=0;exitY=0.5;exitDx=0;exitDy=0;" parent="1" source="zOSaQ0mauKIAhTPhQ_Xu-7" edge="1">
                    <mxGeometry relative="1" as="geometry">
                        <mxPoint x="236" y="409" as="targetPoint"/>
                    </mxGeometry>
                </mxCell>
                <mxCell id="zOSaQ0mauKIAhTPhQ_Xu-7" value="NV Block" style="rounded=0;whiteSpace=wrap;html=1;dashed=1;" parent="1" vertex="1">
                    <mxGeometry x="342" y="321" width="120" height="30" as="geometry"/>
                </mxCell>
                <mxCell id="zOSaQ0mauKIAhTPhQ_Xu-8" value="RAM BLOCK" style="rounded=0;whiteSpace=wrap;html=1;" parent="1" vertex="1">
                    <mxGeometry x="342" y="241" width="120" height="30" as="geometry"/>
                </mxCell>
                <mxCell id="zOSaQ0mauKIAhTPhQ_Xu-11" value="" style="endArrow=classic;html=1;entryX=0.75;entryY=1;entryDx=0;entryDy=0;exitX=0.75;exitY=0;exitDx=0;exitDy=0;" parent="1" source="zOSaQ0mauKIAhTPhQ_Xu-7" target="zOSaQ0mauKIAhTPhQ_Xu-8" edge="1">
                    <mxGeometry width="50" height="50" relative="1" as="geometry">
                        <mxPoint x="422" y="321" as="sourcePoint"/>
                        <mxPoint x="472" y="271" as="targetPoint"/>
                    </mxGeometry>
                </mxCell>
                <mxCell id="zOSaQ0mauKIAhTPhQ_Xu-12" value="" style="endArrow=classic;html=1;exitX=0.25;exitY=1;exitDx=0;exitDy=0;entryX=0.25;entryY=0;entryDx=0;entryDy=0;" parent="1" source="zOSaQ0mauKIAhTPhQ_Xu-8" target="zOSaQ0mauKIAhTPhQ_Xu-7" edge="1">
                    <mxGeometry width="50" height="50" relative="1" as="geometry">
                        <mxPoint x="372" y="281" as="sourcePoint"/>
                        <mxPoint x="432" y="191" as="targetPoint"/>
                    </mxGeometry>
                </mxCell>
                <mxCell id="zOSaQ0mauKIAhTPhQ_Xu-13" value="" style="endArrow=classic;html=1;entryX=1;entryY=0.5;entryDx=0;entryDy=0;exitX=0.5;exitY=0;exitDx=0;exitDy=0;" parent="1" source="zOSaQ0mauKIAhTPhQ_Xu-6" target="zOSaQ0mauKIAhTPhQ_Xu-8" edge="1">
                    <mxGeometry width="50" height="50" relative="1" as="geometry">
                        <mxPoint x="382" y="241" as="sourcePoint"/>
                        <mxPoint x="432" y="191" as="targetPoint"/>
                    </mxGeometry>
                </mxCell>
                <mxCell id="zOSaQ0mauKIAhTPhQ_Xu-14" value="Restore" style="text;html=1;align=center;verticalAlign=middle;resizable=0;points=[];autosize=1;strokeColor=none;rotation=25;" parent="1" vertex="1">
                    <mxGeometry x="518" y="274" width="60" height="20" as="geometry"/>
                </mxCell>
                <mxCell id="zOSaQ0mauKIAhTPhQ_Xu-15" value="Write" style="text;html=1;align=center;verticalAlign=middle;resizable=0;points=[];autosize=1;strokeColor=none;" parent="1" vertex="1">
                    <mxGeometry x="332" y="281" width="40" height="20" as="geometry"/>
                </mxCell>
                <mxCell id="zOSaQ0mauKIAhTPhQ_Xu-16" value="Read" style="text;html=1;align=center;verticalAlign=middle;resizable=0;points=[];autosize=1;strokeColor=none;" parent="1" vertex="1">
                    <mxGeometry x="432" y="281" width="40" height="20" as="geometry"/>
                </mxCell>
                <mxCell id="zOSaQ0mauKIAhTPhQ_Xu-17" value="NvRAM" style="text;html=1;align=left;verticalAlign=middle;resizable=0;points=[];autosize=1;strokeColor=none;" parent="1" vertex="1">
                    <mxGeometry x="13" y="289" width="60" height="20" as="geometry"/>
                </mxCell>
                <mxCell id="zOSaQ0mauKIAhTPhQ_Xu-18" value="FEE/EA" style="text;html=1;align=left;verticalAlign=middle;resizable=0;points=[];autosize=1;strokeColor=none;" parent="1" vertex="1">
                    <mxGeometry x="13" y="435" width="60" height="20" as="geometry"/>
                </mxCell>
                <mxCell id="13" style="edgeStyle=orthogonalEdgeStyle;rounded=0;orthogonalLoop=1;jettySize=auto;html=1;exitX=1;exitY=0.5;exitDx=0;exitDy=0;entryX=0.5;entryY=0;entryDx=0;entryDy=0;" parent="1" source="zOSaQ0mauKIAhTPhQ_Xu-27" target="8" edge="1">
                    <mxGeometry relative="1" as="geometry"/>
                </mxCell>
                <mxCell id="zOSaQ0mauKIAhTPhQ_Xu-27" value="NV Block Redundant" style="rounded=0;whiteSpace=wrap;html=1;dashed=1;" parent="1" vertex="1">
                    <mxGeometry x="342" y="353" width="120" height="30" as="geometry"/>
                </mxCell>
                <mxCell id="zOSaQ0mauKIAhTPhQ_Xu-30" value="" style="endArrow=none;dashed=1;html=1;" parent="1" edge="1">
                    <mxGeometry width="50" height="50" relative="1" as="geometry">
                        <mxPoint x="77" y="124" as="sourcePoint"/>
                        <mxPoint x="696" y="124" as="targetPoint"/>
                    </mxGeometry>
                </mxCell>
                <mxCell id="zOSaQ0mauKIAhTPhQ_Xu-31" value="APP/SWC" style="text;html=1;align=left;verticalAlign=middle;resizable=0;points=[];autosize=1;strokeColor=none;" parent="1" vertex="1">
                    <mxGeometry x="13" y="160" width="65" height="18" as="geometry"/>
                </mxCell>
                <mxCell id="zOSaQ0mauKIAhTPhQ_Xu-32" value="NVM User" style="rounded=0;whiteSpace=wrap;html=1;" parent="1" vertex="1">
                    <mxGeometry x="342" y="145" width="120" height="46" as="geometry"/>
                </mxCell>
                <mxCell id="zOSaQ0mauKIAhTPhQ_Xu-35" value="" style="endArrow=classic;startArrow=classic;html=1;entryX=0.5;entryY=1;entryDx=0;entryDy=0;exitX=0.5;exitY=0;exitDx=0;exitDy=0;" parent="1" source="zOSaQ0mauKIAhTPhQ_Xu-8" target="zOSaQ0mauKIAhTPhQ_Xu-32" edge="1">
                    <mxGeometry width="50" height="50" relative="1" as="geometry">
                        <mxPoint x="361" y="285" as="sourcePoint"/>
                        <mxPoint x="411" y="235" as="targetPoint"/>
                    </mxGeometry>
                </mxCell>
                <mxCell id="2" value="DataSet1&lt;br&gt;" style="html=1;align=center;verticalAlign=top;dashed=1;" parent="1" vertex="1">
                    <mxGeometry x="98" y="410" width="302" height="75" as="geometry"/>
                </mxCell>
                <mxCell id="3" value="Instance 1" style="html=1;align=center;verticalAlign=middle;dashed=1;" parent="1" vertex="1">
                    <mxGeometry x="107" y="432.5" width="66" height="50" as="geometry"/>
                </mxCell>
                <mxCell id="4" value="Instance 2" style="html=1;align=center;verticalAlign=middle;dashed=1;" parent="1" vertex="1">
                    <mxGeometry x="179" y="432.5" width="66" height="50" as="geometry"/>
                </mxCell>
                <mxCell id="5" value="..." style="html=1;align=center;verticalAlign=middle;dashed=1;" parent="1" vertex="1">
                    <mxGeometry x="251" y="432.5" width="66" height="50" as="geometry"/>
                </mxCell>
                <mxCell id="6" value="Instance n" style="html=1;align=center;verticalAlign=middle;dashed=1;" parent="1" vertex="1">
                    <mxGeometry x="323" y="432.5" width="66" height="50" as="geometry"/>
                </mxCell>
                <mxCell id="8" value="DataSet2" style="html=1;align=center;verticalAlign=top;dashed=1;" parent="1" vertex="1">
                    <mxGeometry x="400" y="410" width="302" height="75" as="geometry"/>
                </mxCell>
                <mxCell id="9" value="Instance 1" style="html=1;align=center;verticalAlign=middle;dashed=1;" parent="1" vertex="1">
                    <mxGeometry x="409" y="432.5" width="66" height="50" as="geometry"/>
                </mxCell>
                <mxCell id="10" value="Instance 2" style="html=1;align=center;verticalAlign=middle;dashed=1;" parent="1" vertex="1">
                    <mxGeometry x="481" y="432.5" width="66" height="50" as="geometry"/>
                </mxCell>
                <mxCell id="11" value="..." style="html=1;align=center;verticalAlign=middle;dashed=1;" parent="1" vertex="1">
                    <mxGeometry x="553" y="432.5" width="66" height="50" as="geometry"/>
                </mxCell>
                <mxCell id="12" value="Instance n" style="html=1;align=center;verticalAlign=middle;dashed=1;" parent="1" vertex="1">
                    <mxGeometry x="625" y="432.5" width="66" height="50" as="geometry"/>
                </mxCell>
                <mxCell id="15" value="&lt;br&gt;Note:&lt;br&gt;[1]:&lt;br&gt;&amp;nbsp; &amp;nbsp; &amp;nbsp; &amp;nbsp; &amp;nbsp;Designed Number Of Write Cycles&lt;br&gt;&lt;font style=&quot;font-size: 14px&quot;&gt;&lt;font style=&quot;font-size: 14px&quot;&gt;n&lt;/font&gt; &lt;/font&gt;= --------------------------------------------------&lt;br&gt;&amp;nbsp; &amp;nbsp; &amp;nbsp; &amp;nbsp; &amp;nbsp;Chip Specified Erased Cycles&lt;br&gt;[2]:&lt;br&gt;Dataset size are multiple times of setctor.&lt;br&gt;Sector is corresponding to the smallest erase unit(block)." style="html=1;align=left;verticalAlign=bottom;dashed=1;fillColor=#dae8fc;strokeColor=none;" parent="1" vertex="1">
                    <mxGeometry x="720" y="404" width="326" height="132" as="geometry"/>
                </mxCell>
            </root>
        </mxGraphModel>
    </diagram>
</mxfile>